<svg width="24" height="24" viewBox="0 0 24 24" fill="none" xmlns="http://www.w3.org/2000/svg">
<path d="M19 18.003C19.4597 18.003 19.9148 17.9125 20.3394 17.7366C20.7641 17.5607 21.1499 17.3029 21.4749 16.9779C21.7999 16.6529 22.0577 16.267 22.2336 15.8424C22.4095 15.4178 22.5 14.9626 22.5 14.503C22.5 14.0434 22.4095 13.5882 22.2336 13.1636C22.0577 12.739 21.7999 12.3531 21.4749 12.0281C21.1499 11.7031 20.7641 11.4453 20.3394 11.2694C19.9148 11.0935 19.4597 11.003 19 11.003H18C18.146 10.353 18.149 9.683 18.007 9.033C17.8615 8.37341 17.578 7.75212 17.175 7.21C16.7569 6.648 16.2327 6.17339 15.632 5.813C15.0105 5.43893 14.326 5.18138 13.612 5.053C12.8881 4.92155 12.1467 4.91952 11.422 5.047C10.7071 5.17154 10.0209 5.42536 9.39704 5.796C8.15704 6.536 7.29504 7.69 7.00004 9.003C5.94046 8.9587 4.89659 9.27063 4.03504 9.889C3.19277 10.4915 2.59062 11.3724 2.33504 12.376C2.08687 13.3693 2.20768 14.419 2.67504 15.33C3.15455 16.2576 3.94088 16.9902 4.90004 17.403" stroke="#00AAF8" stroke-width="1.5" stroke-linecap="round" stroke-linejoin="round"/>
<path d="M12 13V22" stroke="#00AAF8" stroke-width="1.5" stroke-linecap="round" stroke-linejoin="round"/>
<path d="M9 19L12 22L15 19" stroke="#00AAF8" stroke-width="1.5" stroke-linecap="round" stroke-linejoin="round"/>
</svg>
