<svg width="16" height="16" viewBox="0 0 16 16" fill="none" xmlns="http://www.w3.org/2000/svg">
<path d="M2.6665 4.66699H13.3332" stroke="#D92D20" stroke-width="1.25" stroke-linecap="round" stroke-linejoin="round"/>
<path d="M6.6665 7.33301V11.333" stroke="#D92D20" stroke-width="1.25" stroke-linecap="round" stroke-linejoin="round"/>
<path d="M9.3335 7.33301V11.333" stroke="#D92D20" stroke-width="1.25" stroke-linecap="round" stroke-linejoin="round"/>
<path d="M3.3335 4.66699L4.00016 12.667C4.00016 13.0206 4.14064 13.3598 4.39069 13.6098C4.64074 13.8598 4.97987 14.0003 5.3335 14.0003H10.6668C11.0205 14.0003 11.3596 13.8598 11.6096 13.6098C11.8597 13.3598 12.0002 13.0206 12.0002 12.667L12.6668 4.66699" stroke="#D92D20" stroke-width="1.25" stroke-linecap="round" stroke-linejoin="round"/>
<path d="M6 4.66667V2.66667C6 2.48986 6.07024 2.32029 6.19526 2.19526C6.32029 2.07024 6.48986 2 6.66667 2H9.33333C9.51014 2 9.67971 2.07024 9.80474 2.19526C9.92976 2.32029 10 2.48986 10 2.66667V4.66667" stroke="#D92D20" stroke-width="1.25" stroke-linecap="round" stroke-linejoin="round"/>
</svg>
