<svg width="16" height="16" viewBox="0 0 16 16" fill="none" xmlns="http://www.w3.org/2000/svg">
<path d="M5.99984 4.66699H3.99984C3.64622 4.66699 3.30708 4.80747 3.05703 5.05752C2.80698 5.30756 2.6665 5.6467 2.6665 6.00033V12.0003C2.6665 12.3539 2.80698 12.6931 3.05703 12.9431C3.30708 13.1932 3.64622 13.3337 3.99984 13.3337H9.99984C10.3535 13.3337 10.6926 13.1932 10.9426 12.9431C11.1927 12.6931 11.3332 12.3539 11.3332 12.0003V10.0003" stroke="black" stroke-width="1.25" stroke-linecap="round" stroke-linejoin="round"/>
<path d="M6 9.9969H8L13.6667 4.33023C13.798 4.19891 13.9022 4.04301 13.9732 3.87143C14.0443 3.69984 14.0809 3.51595 14.0809 3.33023C14.0809 3.14451 14.0443 2.96061 13.9732 2.78903C13.9022 2.61745 13.798 2.46155 13.6667 2.33023C13.5353 2.19891 13.3794 2.09474 13.2079 2.02367C13.0363 1.9526 12.8524 1.91602 12.6667 1.91602C12.2916 1.91602 11.9319 2.06501 11.6667 2.33023L6 7.9969V9.9969Z" stroke="black" stroke-width="1.25" stroke-linecap="round" stroke-linejoin="round"/>
<path d="M10.6665 3.33301L12.6665 5.33301" stroke="black" stroke-width="1.25" stroke-linecap="round" stroke-linejoin="round"/>
</svg>
