<svg width="32" height="32" viewBox="0 0 32 32" fill="none" xmlns="http://www.w3.org/2000/svg">
<path d="M24.6667 12H7.33333C6.97971 12 6.64057 12.1405 6.39052 12.3905C6.14048 12.6406 6 12.9797 6 13.3333V26.6667C6 27.0203 6.14048 27.3594 6.39052 27.6095C6.64057 27.8595 6.97971 28 7.33333 28H24.6667C25.0203 28 25.3594 27.8595 25.6095 27.6095C25.8595 27.3594 26 27.0203 26 26.6667V13.3333C26 12.9797 25.8595 12.6406 25.6095 12.3905C25.3594 12.1405 25.0203 12 24.6667 12Z" stroke="black" stroke-width="1.75" stroke-linecap="round" stroke-linejoin="round"/>
<path d="M11.3333 18.6667C11.687 18.6667 12.0261 18.5262 12.2761 18.2761C12.5262 18.0261 12.6667 17.687 12.6667 17.3333C12.6667 16.9797 12.5262 16.6406 12.2761 16.3905C12.0261 16.1405 11.687 16 11.3333 16C10.9797 16 10.6406 16.1405 10.3905 16.3905C10.1405 16.6406 10 16.9797 10 17.3333C10 17.687 10.1405 18.0261 10.3905 18.2761C10.6406 18.5262 10.9797 18.6667 11.3333 18.6667Z" fill="black"/>
<path d="M20.6667 18.6667C21.0203 18.6667 21.3595 18.5262 21.6095 18.2761C21.8596 18.0261 22 17.687 22 17.3333C22 16.9797 21.8596 16.6406 21.6095 16.3905C21.3595 16.1405 21.0203 16 20.6667 16C20.3131 16 19.9739 16.1405 19.7239 16.3905C19.4739 16.6406 19.3334 16.9797 19.3334 17.3333C19.3334 17.687 19.4739 18.0261 19.7239 18.2761C19.9739 18.5262 20.3131 18.6667 20.6667 18.6667Z" fill="black"/>
<path d="M13.3333 21.3333C12.9797 21.3333 12.6406 21.4737 12.3905 21.7238C12.1405 21.9738 12 22.313 12 22.6666C12 23.0202 12.1405 23.3593 12.3905 23.6094C12.6406 23.8594 12.9797 23.9999 13.3333 23.9999V21.3333ZM18.6667 23.9999C19.0203 23.9999 19.3594 23.8594 19.6095 23.6094C19.8595 23.3593 20 23.0202 20 22.6666C20 22.313 19.8595 21.9738 19.6095 21.7238C19.3594 21.4737 19.0203 21.3333 18.6667 21.3333V23.9999ZM13.3333 23.9999H18.6667V21.3333H13.3333V23.9999Z" fill="black"/>
<path d="M16 6.66675V12.0001" stroke="black" stroke-width="1.75" stroke-linecap="round" stroke-linejoin="round"/>
<path d="M2.66663 17.3333V22.6666" stroke="black" stroke-width="1.75" stroke-linecap="round" stroke-linejoin="round"/>
<path d="M29.3334 17.3333V22.6666" stroke="black" stroke-width="1.75" stroke-linecap="round" stroke-linejoin="round"/>
<path d="M16 6.66667C16.3536 6.66667 16.6927 6.52619 16.9428 6.27614C17.1928 6.02609 17.3333 5.68696 17.3333 5.33333C17.3333 4.97971 17.1928 4.64057 16.9428 4.39052C16.6927 4.14048 16.3536 4 16 4C15.6463 4 15.3072 4.14048 15.0572 4.39052C14.8071 4.64057 14.6666 4.97971 14.6666 5.33333C14.6666 5.68696 14.8071 6.02609 15.0572 6.27614C15.3072 6.52619 15.6463 6.66667 16 6.66667Z" stroke="black" stroke-width="1.75" stroke-linecap="round" stroke-linejoin="round"/>
</svg>
