<svg width="24" height="24" viewBox="0 0 24 24" fill="none" xmlns="http://www.w3.org/2000/svg">
<g clip-path="url(#clip0_434_371)">
<path d="M18.1309 13.041C19.7834 13.0411 21.2805 13.6583 22.3662 14.6602C23.452 15.6622 24.125 17.0481 24.125 18.582C24.125 20.116 23.452 21.5019 22.3662 22.5039C21.2805 23.5057 19.7834 24.123 18.1309 24.123C16.4783 24.123 14.9812 23.5057 13.8955 22.5039C12.8096 21.5019 12.1367 20.116 12.1367 18.582C12.1367 17.048 12.8096 15.6622 13.8955 14.6602C14.9812 13.6583 16.4783 13.041 18.1309 13.041ZM18.1309 14.2598C16.8308 14.2598 15.6545 14.746 14.8057 15.5293C13.957 16.3124 13.4346 17.3934 13.4346 18.584C13.4346 19.7746 13.957 20.8555 14.8057 21.6387C15.6545 22.4219 16.8308 22.9082 18.1309 22.9082C19.4308 22.9082 20.6072 22.4219 21.4561 21.6387C22.3047 20.8555 22.8271 19.7745 22.8271 18.584C22.8271 17.3934 22.3047 16.3124 21.4561 15.5293C20.6072 14.746 19.4308 14.2598 18.1309 14.2598ZM19.4346 -0.125C19.8684 -0.124987 20.2643 0.0397839 20.5537 0.304688H20.5547C20.8423 0.570163 21.0244 0.940466 21.0244 1.35156V10.5859C21.0244 10.9846 20.677 11.291 20.2705 11.291C19.864 11.291 19.5166 10.9845 19.5166 10.5859V1.35156C19.5166 1.34056 19.5122 1.32551 19.4961 1.31055C19.4799 1.2956 19.4586 1.28711 19.4365 1.28711H1.46484C1.44081 1.28711 1.41968 1.29738 1.4082 1.30859L1.40039 1.31543C1.38764 1.326 1.38184 1.33792 1.38184 1.35156V21.2832C1.38184 21.2898 1.38356 21.297 1.38672 21.3037L1.40039 21.3223L1.40332 21.3242C1.41952 21.3392 1.44085 21.3477 1.46289 21.3477H9.33398C9.74049 21.3477 10.0879 21.6541 10.0879 22.0527C10.0879 22.4514 9.74049 22.7578 9.33398 22.7578H1.46484C1.03099 22.7578 0.635082 22.593 0.345703 22.3281H0.344727C0.0571684 22.0627 -0.125 21.6925 -0.125 21.2832V1.35156C-0.125 0.940082 0.0575812 0.571776 0.344727 0.304688L0.458008 0.209961C0.732461 0.000839875 1.0836 -0.125 1.46484 -0.125H19.4346ZM18.207 15.4395C18.5563 15.4395 18.8564 15.703 18.8564 16.0488V18.498L20.835 19.5791C21.1444 19.7461 21.2548 20.1225 21.0654 20.418C20.8817 20.708 20.4861 20.797 20.1826 20.6309L17.9141 19.3896C17.7069 19.2915 17.5566 19.0892 17.5566 18.8457V16.0488C17.5566 15.7029 17.8577 15.4395 18.207 15.4395ZM5.62402 14.0332C5.79761 14.0333 5.95605 14.1659 5.95605 14.3496V15.8047C5.95605 15.9884 5.79761 16.121 5.62402 16.1211H4.04688C3.87321 16.1211 3.71484 15.9884 3.71484 15.8047V14.3467C3.71871 14.1637 3.87481 14.0332 4.04688 14.0332H5.62402ZM11.1416 14.2852C11.5139 14.2852 11.7939 14.6126 11.7939 14.9902C11.7939 15.3682 11.5115 15.6953 11.1416 15.6953H8.25684C7.88454 15.6953 7.60449 15.3679 7.60449 14.9902C7.60449 14.6123 7.88697 14.2852 8.25684 14.2852H11.1416ZM5.69531 9.07422C5.90628 8.9822 6.16388 9.07071 6.30957 9.25977C6.47728 9.47771 6.47181 9.79771 6.24902 9.96387L4.7666 11.0654C4.57817 11.204 4.32728 11.1636 4.15625 11.0205L4.0957 10.9727L4.09375 10.9717L3.43359 10.3428L3.43262 10.3418C3.22442 10.1405 3.29718 9.83216 3.51465 9.66016C3.72796 9.49146 4.05589 9.46496 4.25195 9.65137L4.53516 9.91992L5.6084 9.12402L5.69531 9.07422ZM15.415 9.19336C15.7873 9.19336 16.0674 9.52081 16.0674 9.89844C16.0674 10.2764 15.7849 10.6035 15.415 10.6035H7.91016C7.53786 10.6035 7.25781 10.2761 7.25781 9.89844C7.25781 9.52047 7.54029 9.19336 7.91016 9.19336H15.415ZM5.62402 4.07227C5.79761 4.07239 5.95605 4.20499 5.95605 4.38867V5.84375C5.95605 6.02744 5.79761 6.16003 5.62402 6.16016H4.04688C3.87321 6.16013 3.71484 6.02751 3.71484 5.84375V4.38574C3.7187 4.20554 3.87393 4.07229 4.04688 4.07227H5.62402ZM15.7627 4.32422C16.1348 4.32449 16.4141 4.65183 16.4141 5.0293C16.4141 5.40711 16.1323 5.7341 15.7627 5.73438H8.25684C7.88454 5.73438 7.60449 5.40692 7.60449 5.0293C7.60449 4.65133 7.88697 4.32422 8.25684 4.32422H15.7627Z" fill="black" stroke="black" stroke-width="0.25"/>
</g>
<defs>
<clipPath id="clip0_434_371">
<rect width="24" height="24" fill="white"/>
</clipPath>
</defs>
</svg>
