<svg width="28" height="28" viewBox="0 0 28 28" fill="none" xmlns="http://www.w3.org/2000/svg">
<path d="M10.5 12.8333C11.7377 12.8333 12.9246 12.3417 13.7998 11.4665C14.675 10.5913 15.1666 9.40434 15.1666 8.16667C15.1666 6.92899 14.675 5.742 13.7998 4.86683C12.9246 3.99167 11.7377 3.5 10.5 3.5C9.2623 3.5 8.07532 3.99167 7.20015 4.86683C6.32498 5.742 5.83331 6.92899 5.83331 8.16667C5.83331 9.40434 6.32498 10.5913 7.20015 11.4665C8.07532 12.3417 9.2623 12.8333 10.5 12.8333Z" stroke="black" stroke-width="1.75" stroke-linecap="round" stroke-linejoin="round"/>
<path d="M3.5 24.5V22.1667C3.5 20.929 3.99167 19.742 4.86683 18.8668C5.742 17.9917 6.92899 17.5 8.16667 17.5H12.8333C14.071 17.5 15.258 17.9917 16.1332 18.8668C17.0083 19.742 17.5 20.929 17.5 22.1667V24.5" stroke="black" stroke-width="1.75" stroke-linecap="round" stroke-linejoin="round"/>
<path d="M18.6667 3.65527C19.6705 3.91229 20.5602 4.49609 21.1956 5.31464C21.831 6.13318 22.1758 7.13991 22.1758 8.17611C22.1758 9.21231 21.831 10.219 21.1956 11.0376C20.5602 11.8561 19.6705 12.4399 18.6667 12.6969" stroke="black" stroke-width="1.75" stroke-linecap="round" stroke-linejoin="round"/>
<path d="M24.5 24.4976V22.1643C24.4941 21.1343 24.1476 20.1352 23.5145 19.3227C22.8814 18.5103 21.9973 17.9301 21 17.6726" stroke="black" stroke-width="1.75" stroke-linecap="round" stroke-linejoin="round"/>
</svg>
