<svg width="20" height="20" viewBox="0 0 20 20" fill="none" xmlns="http://www.w3.org/2000/svg">
<path d="M18.6333 8.33333H9.99998V11.8833H14.9333C14.7166 13.025 14.0666 13.9917 13.0916 14.6417C12.275 15.1917 11.2333 15.525 9.99998 15.525C7.61665 15.525 5.59165 13.9167 4.86665 11.75H4.85581L4.86665 11.7417C4.68331 11.1917 4.57498 10.6083 4.57498 10C4.57498 9.39167 4.68331 8.80833 4.86665 8.25833C5.59165 6.09167 7.61665 4.48333 9.99998 4.48333C11.35 4.48333 12.55 4.95 13.5083 5.85L16.1333 3.225C14.5416 1.74167 12.475 0.833332 9.99998 0.833332C6.41665 0.833332 3.32498 2.89167 1.81665 5.89167C1.19165 7.125 0.833313 8.51667 0.833313 10C0.833313 11.4833 1.19165 12.875 1.81665 14.1083V14.1167C3.32498 17.1083 6.41665 19.1667 9.99998 19.1667C12.475 19.1667 14.55 18.35 16.0666 16.95C17.8 15.35 18.8 13 18.8 10.2083C18.8 9.55833 18.7416 8.93333 18.6333 8.33333Z" fill="#FC4C53"/>
<mask id="mask0_368_2338" style="mask-type:luminance" maskUnits="userSpaceOnUse" x="0" y="0" width="19" height="20">
<path d="M18.6333 8.33333H9.99998V11.8833H14.9333C14.7166 13.025 14.0666 13.9917 13.0916 14.6417C12.275 15.1917 11.2333 15.525 9.99998 15.525C7.61665 15.525 5.59165 13.9167 4.86665 11.75H4.85581L4.86665 11.7417C4.68331 11.1917 4.57498 10.6083 4.57498 10C4.57498 9.39167 4.68331 8.80833 4.86665 8.25833C5.59165 6.09167 7.61665 4.48333 9.99998 4.48333C11.35 4.48333 12.55 4.95 13.5083 5.85L16.1333 3.225C14.5416 1.74167 12.475 0.833332 9.99998 0.833332C6.41665 0.833332 3.32498 2.89167 1.81665 5.89167C1.19165 7.125 0.833313 8.51667 0.833313 10C0.833313 11.4833 1.19165 12.875 1.81665 14.1083V14.1167C3.32498 17.1083 6.41665 19.1667 9.99998 19.1667C12.475 19.1667 14.55 18.35 16.0666 16.95C17.8 15.35 18.8 13 18.8 10.2083C18.8 9.55833 18.7416 8.93333 18.6333 8.33333Z" fill="white"/>
</mask>
<g mask="url(#mask0_368_2338)">
<path d="M3.03831 20.0342C6.60745 20.0342 9.50081 16.1282 9.50081 11.31C9.50081 6.49177 6.60745 2.58583 3.03831 2.58583C-0.530834 2.58583 -3.42419 6.49177 -3.42419 11.31C-3.42419 16.1282 -0.530834 20.0342 3.03831 20.0342Z" fill="url(#paint0_radial_368_2338)"/>
<path d="M14.1842 28.8849C21.3839 27.9856 26.6671 22.8268 25.9845 17.3626C25.302 11.8983 18.9122 8.19767 11.7125 9.09699C4.51277 9.99631 -0.770416 15.155 -0.0878671 20.6193C0.594681 26.0836 6.9845 29.7842 14.1842 28.8849Z" fill="url(#paint1_radial_368_2338)"/>
<path d="M9.25415 6.9L9.66332 11.5633L10.1825 14.6858L16.3175 20.3925L23.49 7.145L9.25415 6.9Z" fill="url(#paint2_linear_368_2338)"/>
</g>
<defs>
<radialGradient id="paint0_radial_368_2338" cx="0" cy="0" r="1" gradientUnits="userSpaceOnUse" gradientTransform="translate(3.03908 11.3098) scale(6.46241 8.72329)">
<stop offset="0.368" stop-color="#FFCF09"/>
<stop offset="0.718" stop-color="#FFCF09" stop-opacity="0.7"/>
<stop offset="1" stop-color="#FFCF09" stop-opacity="0"/>
</radialGradient>
<radialGradient id="paint1_radial_368_2338" cx="0" cy="0" r="1" gradientUnits="userSpaceOnUse" gradientTransform="translate(12.9486 18.9909) rotate(-7.12) scale(13.1371 9.97059)">
<stop offset="0.383" stop-color="#34A853"/>
<stop offset="0.706" stop-color="#34A853" stop-opacity="0.7"/>
<stop offset="1" stop-color="#34A853" stop-opacity="0"/>
</radialGradient>
<linearGradient id="paint2_linear_368_2338" x1="19.6317" y1="5.23833" x2="10.1233" y2="16.9158" gradientUnits="userSpaceOnUse">
<stop offset="0.671" stop-color="#4285F4"/>
<stop offset="0.885" stop-color="#4285F4" stop-opacity="0"/>
</linearGradient>
</defs>
</svg>
