<svg width="16" height="16" viewBox="0 0 16 16" fill="none" xmlns="http://www.w3.org/2000/svg">
<path d="M7.99984 9.33366C8.35346 9.33366 8.6926 9.19318 8.94265 8.94313C9.19269 8.69309 9.33317 8.35395 9.33317 8.00033C9.33317 7.6467 9.19269 7.30757 8.94265 7.05752C8.6926 6.80747 8.35346 6.66699 7.99984 6.66699C7.64622 6.66699 7.30708 6.80747 7.05703 7.05752C6.80698 7.30757 6.6665 7.6467 6.6665 8.00033C6.6665 8.35395 6.80698 8.69309 7.05703 8.94313C7.30708 9.19318 7.64622 9.33366 7.99984 9.33366Z" stroke="black" stroke-width="1.25" stroke-linecap="round" stroke-linejoin="round"/>
<path d="M14.6668 7.99967C12.8888 11.111 10.6668 12.6663 8.00016 12.6663C5.3335 12.6663 3.1115 11.111 1.3335 7.99967C3.1115 4.88834 5.3335 3.33301 8.00016 3.33301C10.6668 3.33301 12.8888 4.88834 14.6668 7.99967Z" stroke="black" stroke-width="1.25" stroke-linecap="round" stroke-linejoin="round"/>
</svg>
